<svg width="1360" height="170" viewBox="0 0 1360 170" fill="none" xmlns="http://www.w3.org/2000/svg">
<g clip-path="url(#clip0_23_308)">
<g clip-path="url(#clip1_23_308)">
<path d="M604 25.3C602.291 24.7 597.266 23 593.95 22C590.634 21.1 587.216 20.3 583.9 19.6C580.583 18.9 577.167 18.3 573.85 17.8C570.534 17.3 567.117 16.9 563.8 16.5C560.484 16.1 557.067 15.8 553.75 15.5C550.434 15.3 547.016 15 543.7 14.8C540.383 14.6 536.966 14.4 533.65 14.3C530.428 14.1057 527.111 14.0058 523.884 13.9086L523.6 13.9C520.284 13.8 516.867 13.7 513.55 13.6C510.233 13.5 506.816 13.4 503.5 13.4C500.184 13.3 496.767 13.3 493.45 13.2C490.133 13.2 486.716 13.1 483.4 13.1C480.084 13.1 476.667 13.1 473.35 13H463.3H453.25H443.2C439.883 13 436.467 13.1 433.15 13.1C429.833 13.1 426.417 13.1 423.1 13.2C419.784 13.2 416.367 13.3 413.05 13.3C409.734 13.4 406.316 13.4 403 13.5C399.684 13.6 396.266 13.7 392.95 13.8C389.633 13.9 386.217 14 382.9 14.1C379.583 14.3 376.167 14.4 372.85 14.6C369.534 14.8 366.117 15 362.8 15.2C359.484 15.5 356.066 15.7 352.75 16.1C349.434 16.4 346.017 16.8 342.7 17.2C339.384 17.7 335.966 18.2 332.65 18.8C329.333 19.4 325.917 20.1 322.6 21C319.284 21.8 315.867 22.7 312.55 23.9C309.233 25 305.816 26.3 302.5 27.8C299.184 29.3 295.767 31 292.45 32.9C289.134 34.9 285.716 37.1 282.4 39.6C279.083 42.1 275.667 44.9 272.35 48C269.034 51.1 265.617 54.6 262.3 58.2C258.983 61.8 255.566 65.8 252.25 69.8C248.934 73.9 245.517 78.2 242.2 82.4C238.884 86.7 235.466 91.1 232.15 95.2C228.833 99.3 225.417 103.5 222.1 107.3C218.784 111.1 215.367 114.8 212.05 118.1C208.733 121.4 205.316 124.5 202 127.2C198.684 130 195.267 132.4 191.95 134.6C188.634 136.8 185.216 138.7 181.9 140.3C178.583 142 175.167 143.4 171.85 144.7C168.534 146 165.117 147 161.8 148C158.483 148.9 155.066 149.7 151.75 150.4C148.434 151.1 145.017 151.7 141.7 152.2C138.384 152.7 134.966 153.1 131.65 153.5C128.588 153.869 125.441 154.153 122.366 154.431L121.6 154.5C118.284 154.7 114.867 155 111.55 155.2C108.233 155.4 104.816 155.6 101.5 155.7C98.2782 155.894 94.9615 155.994 91.7343 156.091L91.45 156.1C88.1335 156.2 84.7165 156.3 81.4 156.4C78.0835 156.5 74.6665 156.6 71.35 156.6C68.0335 156.7 64.6165 156.7 61.3 156.8C57.9835 156.8 54.5665 156.9 51.25 156.9C47.9335 156.9 44.5165 156.9 41.2 157H31.15H21.1H11.05C7.73352 157 4.31653 156.9 1 156.9H0.998535C-2.31757 156.9 -5.73401 156.9 -9.04999 156.8C-12.3665 156.8 -15.7835 156.7 -19.1 156.7C-22.4165 156.6 -25.8335 156.6 -29.15 156.5C-32.4665 156.4 -35.8835 156.3 -39.2 156.2C-42.5165 156.1 -45.9335 156 -49.25 155.9C-52.5665 155.7 -55.9835 155.6 -59.3 155.4C-62.6165 155.2 -66.0335 155 -69.35 154.8C-72.6665 154.5 -76.0835 154.3 -79.4 153.9C-82.7165 153.6 -86.1335 153.2 -89.45 152.8C-92.7665 152.3 -96.1835 151.8 -99.5 151.2C-102.816 150.6 -106.234 149.9 -109.55 149C-112.867 148.2 -116.284 147.3 -119.6 146.1C-122.917 145 -126.333 143.7 -129.65 142.2C-132.966 140.7 -136.383 139 -139.7 137.1C-143.016 135.1 -146.433 132.9 -149.75 130.4C-153.066 127.9 -156.484 125.1 -159.8 122C-163.117 118.9 -166.534 115.4 -169.85 111.8C-173.167 108.2 -176.583 104.2 -179.9 100.2C-183.216 96.1 -186.633 91.8 -189.95 87.6C-193.266 83.3 -196.683 78.9 -200 74.8C-203.316 70.7 -206.734 66.5 -210.05 62.7C-213.367 58.9 -216.784 55.2 -220.1 51.9C-223.417 48.6 -226.833 45.5 -230.15 42.8C-233.466 40 -236.883 37.6 -240.2 35.4C-243.516 33.2 -246.933 31.3 -250.25 29.7C-253.566 28 -256.984 26.6 -260.3 25.3C-263.617 24 -267.034 23 -270.35 22C-273.667 21.1 -277.083 20.3 -280.4 19.6C-283.716 18.9 -287.133 18.3 -290.45 17.8C-293.444 17.3486 -296.519 16.9788 -299.529 16.6169L-300.5 16.5C-303.562 16.1307 -306.709 15.8467 -309.784 15.5692L-310.55 15.5C-313.867 15.3 -317.284 15 -320.6 14.8C-323.917 14.6 -327.333 14.4 -330.65 14.3C-333.872 14.1057 -337.189 14.0058 -340.416 13.9086L-340.7 13.9C-344.016 13.8 -347.433 13.7 -350.75 13.6C-354.066 13.5 -357.484 13.4 -360.8 13.4C-364.117 13.3 -367.534 13.3 -370.85 13.2C-374.167 13.2 -377.583 13.1 -380.9 13.1C-384.216 13.1 -387.633 13.1 -390.95 13H-401H-411.05H-421.1C-424.417 13 -427.833 13.1 -431.15 13.1C-434.467 13.1 -437.884 13.1 -441.2 13.2C-444.516 13.2 -447.933 13.3 -451.25 13.3C-454.567 13.4 -457.984 13.4 -461.3 13.5C-464.616 13.6 -468.033 13.7 -471.35 13.8C-474.667 13.9 -478.083 14 -481.4 14.1C-484.717 14.3 -488.134 14.4 -491.45 14.6C-494.766 14.8 -498.183 15 -501.5 15.2C-504.817 15.5 -508.234 15.7 -511.55 16.1C-514.866 16.4 -518.283 16.8 -521.6 17.2C-524.917 17.7 -528.333 18.2 -531.65 18.8C-534.967 19.4 -538.384 20.1 -541.7 21C-545.016 21.8 -548.433 22.7 -551.75 23.9C-555.067 25 -558.484 26.3 -561.8 27.8C-565.116 29.3 -568.533 31 -571.85 32.9C-575.167 34.9 -578.583 37.1 -581.9 39.6C-585.217 42.1 -588.634 44.9 -591.95 48C-595.266 51.1 -600.292 56.5 -602 58.2" stroke-width="0.5" stroke-linecap="round" stroke="#0044FF"/>
<path d="M-272.199 134.5C-271.58 134.107 -270.963 133.707 -270.35 133.3C-267.033 131 -263.617 128.4 -260.3 125.5C-256.983 122.7 -253.567 119.5 -250.25 116.1C-246.933 112.6 -243.517 108.9 -240.2 105C-236.883 101.1 -233.467 96.9 -230.15 92.7C-226.833 88.5 -223.417 84.1 -220.1 79.9C-216.783 75.7 -213.367 71.4 -210.05 67.4C-206.733 63.4 -203.317 59.6 -200 56C-196.683 52.5 -193.267 49.2 -189.95 46.2C-186.633 43.2 -183.217 40.6 -179.9 38.1C-176.583 35.7 -173.167 33.7 -169.85 31.8C-166.533 29.9 -163.117 28.3 -159.8 26.9C-156.483 25.5 -153.067 24.3 -149.75 23.2C-146.664 22.1763 -143.49 21.4125 -140.392 20.6666L-139.7 20.5C-136.638 19.7614 -133.49 19.1932 -130.415 18.6382L-129.65 18.5C-126.333 17.9 -122.917 17.4 -119.6 17C-116.283 16.6 -112.867 16.2 -109.55 15.9C-106.233 15.6 -102.817 15.3 -99.5 15.1C-96.1835 14.8 -92.7665 14.7 -89.45 14.5C-86.1335 14.3 -82.7166 14.2 -79.4 14C-76.0835 13.9 -72.6665 13.8 -69.35 13.7C-66.0334 13.6 -62.6165 13.5 -59.3 13.5C-55.9835 13.4 -52.5665 13.3 -49.25 13.3C-45.9335 13.2 -42.5165 13.2 -39.2 13.2C-35.8835 13.1 -32.4666 13.1 -29.15 13.1C-25.8335 13 -22.4165 13 -19.1 13H-9.04999H1C4.31653 13 7.73346 13 11.05 13.1H21.1C24.4165 13.2 27.8335 13.2 31.15 13.3C34.4666 13.3 37.8835 13.4 41.2 13.4C44.5165 13.5 47.9335 13.6 51.25 13.7C54.5665 13.7 57.9835 13.8 61.3 14L61.584 14.0086C64.8114 14.1058 68.1281 14.2057 71.35 14.4C74.6665 14.5 78.0835 14.7 81.4 14.9C84.7166 15.2 88.1335 15.4 91.45 15.7L92.2155 15.7691C95.2905 16.0466 98.4381 16.3307 101.5 16.7C104.816 17.1 108.233 17.6 111.55 18.1C114.866 18.7 118.284 19.3 121.6 20C124.917 20.8 128.333 21.6 131.65 22.6C134.966 23.6 138.384 24.7 141.7 26.1C145.017 27.4 148.434 28.9 151.75 30.7C155.066 32.5 158.483 34.5 161.8 36.7C165.116 39 168.534 41.6 171.85 44.5C175.167 47.3 178.583 50.5 181.9 53.9C185.216 57.4 188.634 61.1 191.95 65C195.267 68.9 198.684 73.1 202 77.3C205.316 81.5 208.733 85.9 212.05 90.1C215.366 94.3 218.784 98.6 222.1 102.6C225.417 106.6 228.833 110.4 232.15 114C235.466 117.5 238.884 120.8 242.2 123.8C245.517 126.8 248.934 129.4 252.25 131.9C255.566 134.3 258.983 136.3 262.3 138.2C265.616 140.1 269.034 141.7 272.35 143.1C275.667 144.5 279.083 145.7 282.4 146.8C285.716 147.9 289.134 148.7 292.45 149.5C295.767 150.3 299.184 150.9 302.5 151.5C305.816 152.1 309.233 152.6 312.55 153C315.866 153.4 319.284 153.8 322.6 154.1C325.917 154.4 329.333 154.7 332.65 154.9C335.966 155.2 339.384 155.3 342.7 155.5C346.017 155.7 349.434 155.8 352.75 156C356.066 156.1 359.484 156.2 362.8 156.3C366.117 156.4 369.534 156.5 372.85 156.5C376.167 156.6 379.583 156.7 382.9 156.7C386.216 156.8 389.633 156.8 392.95 156.8C396.266 156.9 399.682 156.9 402.998 156.9H403C406.316 157 409.734 157 413.05 157H423.1H433.15C436.466 157 439.883 157 443.2 156.9H453.25C456.566 156.8 459.984 156.8 463.3 156.7C466.617 156.7 470.034 156.6 473.35 156.6C476.667 156.5 480.084 156.4 483.4 156.3C486.716 156.3 490.133 156.2 493.45 156L493.736 155.991C496.962 155.894 500.279 155.794 503.5 155.6C506.816 155.5 510.234 155.3 513.55 155.1C516.867 154.8 520.284 154.6 523.6 154.3C526.916 154 530.334 153.7 533.65 153.3C536.966 152.9 540.383 152.4 543.7 151.9C547.017 151.3 550.433 150.7 553.75 150C557.067 149.2 560.483 148.4 563.8 147.4C567.117 146.4 570.534 145.3 573.85 143.9C577.167 142.6 580.583 141.1 583.9 139.3C587.216 137.5 590.634 135.5 593.95 133.3C597.266 131 602.291 126.8 604 125.5" stroke-width="1.5" stroke-linecap="round" stroke="#0044FF"/>
<path d="M604 79.9C602.291 77.8 597.266 71.4 593.95 67.4C590.634 63.4 587.216 59.6 583.9 56C580.583 52.5 577.167 49.2 573.85 46.2C570.534 43.2 567.117 40.6 563.8 38.1C560.484 35.7 557.067 33.7 553.75 31.8C550.434 29.9 547.016 28.3 543.7 26.9C540.383 25.5 536.966 24.3 533.65 23.2C530.334 22.1 526.917 21.3 523.6 20.5C520.284 19.7 516.867 19.1 513.55 18.5C510.233 17.9 506.816 17.4 503.5 17C500.184 16.6 496.767 16.2 493.45 15.9C490.133 15.6 486.716 15.3 483.4 15.1C480.084 14.8 476.667 14.7 473.35 14.5C470.034 14.3 466.617 14.2 463.3 14C459.984 13.9 456.566 13.8 453.25 13.7C449.934 13.6 446.516 13.5 443.2 13.5C439.883 13.4 436.467 13.3 433.15 13.3C429.833 13.2 426.417 13.2 423.1 13.2C419.784 13.1 416.367 13.1 413.05 13.1C409.734 13 406.316 13 403 13H392.95H382.9C379.583 13 376.167 13 372.85 13.1H362.8C359.484 13.2 356.066 13.2 352.75 13.3C349.434 13.3 346.017 13.4 342.7 13.4C339.384 13.5 335.966 13.6 332.65 13.7C329.333 13.7 325.917 13.8 322.6 14L322.316 14.0086C319.088 14.1058 315.772 14.2057 312.55 14.4C309.233 14.5 305.816 14.7 302.5 14.9C299.184 15.2 295.767 15.4 292.45 15.7L291.684 15.7691C288.609 16.0467 285.462 16.3307 282.4 16.7C279.083 17.1 275.667 17.6 272.35 18.1C269.034 18.7 265.617 19.3 262.3 20C258.983 20.8 255.566 21.6 252.25 22.6C248.934 23.6 245.517 24.7 242.2 26.1C238.884 27.4 235.466 28.9 232.15 30.7C228.833 32.5 225.417 34.5 222.1 36.7C218.784 39 215.367 41.6 212.05 44.5C208.733 47.3 205.316 50.5 202 53.9C198.684 57.4 195.267 61.1 191.95 65C188.634 68.9 185.216 73.1 181.9 77.3C178.583 81.5 175.167 85.9 171.85 90.1C168.534 94.3 165.117 98.6 161.8 102.6C158.483 106.6 155.066 110.4 151.75 114C148.434 117.5 145.017 120.8 141.7 123.8C138.384 126.8 134.966 129.4 131.65 131.9C128.333 134.3 124.917 136.3 121.6 138.2C118.284 140.1 114.867 141.7 111.55 143.1C108.233 144.5 104.816 145.7 101.5 146.8C98.1835 147.9 94.7665 148.7 91.45 149.5C88.1335 150.3 84.7165 150.9 81.4 151.5C78.0835 152.1 74.6665 152.6 71.35 153C68.0335 153.4 64.6165 153.8 61.3 154.1C57.9835 154.4 54.5665 154.7 51.25 154.9C47.9335 155.2 44.5165 155.3 41.2 155.5C37.8835 155.7 34.4665 155.8 31.15 156C27.8335 156.1 24.4165 156.2 21.1 156.3C17.7835 156.4 14.3665 156.5 11.05 156.5C7.73352 156.6 4.31653 156.7 1 156.7C-2.31647 156.8 -5.73352 156.8 -9.04999 156.8C-12.366 156.9 -15.7824 156.9 -19.0985 156.9H-19.1C-22.4165 157 -25.8335 157 -29.15 157H-39.2H-49.25C-52.5665 157 -55.9835 157 -59.3 156.9H-69.35C-72.6665 156.8 -76.0835 156.8 -79.4 156.7C-82.7165 156.7 -86.1335 156.6 -89.45 156.6C-92.7665 156.5 -96.1835 156.4 -99.5 156.3C-102.816 156.3 -106.234 156.2 -109.55 156L-109.836 155.991C-113.062 155.894 -116.379 155.794 -119.6 155.6C-122.917 155.5 -126.333 155.3 -129.65 155.1C-132.966 154.8 -136.383 154.6 -139.7 154.3L-140.466 154.231C-143.541 153.953 -146.688 153.669 -149.75 153.3C-153.066 152.9 -156.484 152.4 -159.8 151.9C-163.117 151.3 -166.534 150.7 -169.85 150C-173.167 149.2 -176.583 148.4 -179.9 147.4C-183.216 146.4 -186.633 145.3 -189.95 143.9C-193.266 142.6 -196.683 141.1 -200 139.3C-203.316 137.5 -206.734 135.5 -210.05 133.3C-213.367 131 -216.784 128.4 -220.1 125.5C-223.417 122.7 -226.833 119.5 -230.15 116.1C-233.466 112.6 -236.883 108.9 -240.2 105C-243.516 101.1 -246.933 96.9 -250.25 92.7C-253.566 88.5 -256.984 84.1 -260.3 79.9C-263.617 75.7 -267.034 71.4 -270.35 67.4C-273.667 63.4 -277.083 59.6 -280.4 56C-283.716 52.5 -287.133 49.2 -290.45 46.2C-293.766 43.2 -297.183 40.6 -300.5 38.1C-303.816 35.7 -307.234 33.7 -310.55 31.8C-313.867 29.9 -317.284 28.3 -320.6 26.9C-323.917 25.5 -327.333 24.3 -330.65 23.2C-333.736 22.1764 -336.91 21.4125 -340.008 20.6667L-340.7 20.5C-343.762 19.7614 -346.91 19.1933 -349.985 18.6382L-350.75 18.5C-354.066 17.9 -357.484 17.4 -360.8 17C-364.117 16.6 -367.534 16.2 -370.85 15.9C-374.167 15.6 -377.583 15.3 -380.9 15.1C-384.216 14.8 -387.633 14.7 -390.95 14.5C-394.266 14.3 -397.683 14.2 -401 14C-404.316 13.9 -407.734 13.8 -411.05 13.7C-414.367 13.6 -417.784 13.5 -421.1 13.5C-424.417 13.4 -427.833 13.3 -431.15 13.3C-434.467 13.2 -437.884 13.2 -441.2 13.2C-444.516 13.1 -447.933 13.1 -451.25 13.1C-454.567 13 -457.984 13 -461.3 13H-471.35H-481.4C-484.717 13 -488.134 13 -491.45 13.1H-501.5C-504.817 13.2 -508.234 13.2 -511.55 13.3C-514.866 13.3 -518.283 13.4 -521.6 13.4C-524.917 13.5 -528.333 13.6 -531.65 13.7C-534.967 13.7 -538.384 13.8 -541.7 14L-541.984 14.0086C-545.211 14.1058 -548.528 14.2057 -551.75 14.4C-555.067 14.5 -558.484 14.7 -561.8 14.9C-565.116 15.2 -568.533 15.4 -571.85 15.7L-572.615 15.7691C-575.69 16.0466 -578.838 16.3307 -581.9 16.7C-585.217 17.1 -588.634 17.6 -591.95 18.1C-595.266 18.7 -600.292 19.7 -602 20" stroke-width="2" stroke-linecap="round" stroke="#0044FF"/>
<path d="M-304.965 105.5C-303.469 103.757 -301.974 101.978 -300.5 100.2C-297.183 96.1 -293.767 91.8 -290.45 87.6C-287.133 83.3 -283.717 78.9 -280.4 74.8C-277.083 70.7 -273.667 66.5 -270.35 62.7C-267.033 58.9 -263.617 55.2 -260.3 51.9C-256.983 48.6 -253.567 45.5 -250.25 42.8C-246.933 40 -243.517 37.6 -240.2 35.4C-236.883 33.2 -233.467 31.3 -230.15 29.7C-226.833 28 -223.417 26.6 -220.1 25.3C-216.783 24 -213.367 23 -210.05 22C-206.733 21.1 -203.317 20.3 -200 19.6C-196.683 18.9 -193.267 18.3 -189.95 17.8C-186.956 17.3486 -183.88 16.9788 -180.87 16.6168L-179.9 16.5C-176.838 16.1307 -173.69 15.8466 -170.615 15.5691L-169.85 15.5C-166.533 15.3 -163.117 15 -159.8 14.8C-156.483 14.6 -153.067 14.4 -149.75 14.3C-146.528 14.1057 -143.211 14.0058 -139.984 13.9086L-139.7 13.9C-136.383 13.8 -132.967 13.7 -129.65 13.6C-126.333 13.5 -122.917 13.4 -119.6 13.4C-116.283 13.3 -112.867 13.3 -109.55 13.2C-106.233 13.2 -102.817 13.1 -99.5 13.1C-96.1835 13.1 -92.7665 13.1 -89.45 13H-79.4H-69.35H-59.3C-55.9835 13 -52.5665 13.1 -49.25 13.1C-45.9335 13.1 -42.5165 13.1 -39.2 13.2C-35.8835 13.2 -32.4666 13.3 -29.15 13.3C-25.8335 13.4 -22.4165 13.4 -19.1 13.5C-15.7834 13.6 -12.3665 13.7 -9.04999 13.8C-5.73346 13.9 -2.31653 14 1 14.1C4.31653 14.3 7.73346 14.4 11.05 14.6C14.3665 14.8 17.7834 15 21.1 15.2C24.4165 15.5 27.8335 15.7 31.15 16.1C34.4666 16.4 37.8835 16.8 41.2 17.2C44.5165 17.7 47.9335 18.2 51.25 18.8C54.5665 19.4 57.9835 20.1 61.3 21C64.6165 21.8 68.0334 22.7 71.35 23.9C74.6665 25 78.0835 26.3 81.4 27.8C84.7166 29.3 88.1335 31 91.45 32.9C94.7665 34.9 98.1835 37.1 101.5 39.6C104.816 42.1 108.233 44.9 111.55 48C114.866 51.1 118.284 54.6 121.6 58.2C124.917 61.8 128.333 65.8 131.65 69.8C134.966 73.9 138.384 78.2 141.7 82.4C145.017 86.7 148.434 91.1 151.75 95.2C155.066 99.3 158.483 103.5 161.8 107.3C165.116 111.1 168.534 114.8 171.85 118.1C175.167 121.4 178.583 124.5 181.9 127.2C185.216 130 188.634 132.4 191.95 134.6C195.267 136.8 198.684 138.7 202 140.3C205.316 142 208.733 143.4 212.05 144.7C215.366 146 218.784 147 222.1 148C225.417 148.9 228.833 149.7 232.15 150.4C235.466 151.1 238.884 151.7 242.2 152.2C245.517 152.7 248.934 153.1 252.25 153.5C255.312 153.869 258.459 154.153 261.534 154.431L262.3 154.5C265.616 154.7 269.034 155 272.35 155.2C275.667 155.4 279.083 155.6 282.4 155.7C285.622 155.894 288.938 155.994 292.166 156.091L292.45 156.1C295.767 156.2 299.184 156.3 302.5 156.4C305.816 156.5 309.233 156.6 312.55 156.6C315.866 156.7 319.284 156.7 322.6 156.8C325.917 156.8 329.333 156.9 332.65 156.9C335.966 156.9 339.384 156.9 342.7 157H352.75H362.8H372.85C376.167 157 379.583 156.9 382.9 156.9H382.902C386.218 156.9 389.634 156.9 392.95 156.8C396.266 156.8 399.684 156.7 403 156.7C406.316 156.6 409.734 156.6 413.05 156.5C416.367 156.4 419.784 156.3 423.1 156.2C426.417 156.1 429.833 156 433.15 155.9C436.466 155.7 439.883 155.6 443.2 155.4C446.516 155.2 449.934 155 453.25 154.8C456.566 154.5 459.984 154.3 463.3 153.9C466.617 153.6 470.034 153.2 473.35 152.8C476.667 152.3 480.084 151.8 483.4 151.2C486.716 150.6 490.133 149.9 493.45 149C496.766 148.2 500.184 147.3 503.5 146.1C506.816 145 510.234 143.7 513.55 142.2C516.867 140.7 520.284 139 523.6 137.1C526.916 135.1 530.334 132.9 533.65 130.4C536.966 127.9 540.383 125.1 543.7 122C547.017 118.9 550.433 115.4 553.75 111.8C557.067 108.2 560.483 104.2 563.8 100.2C567.117 96.1 570.534 91.8 573.85 87.6C577.167 83.3 580.583 78.9 583.9 74.8C587.216 70.7 590.634 66.5 593.95 62.7C597.266 58.9 602.291 53.7 604 51.9" stroke-width="1.5" stroke-linecap="round" stroke="#0044FF"/>
<path d="M604 141.3C602.291 140.4 597.266 137.9 593.95 135.9C590.634 133.8 587.216 131.5 583.9 128.8C580.583 126.2 577.167 123.3 573.85 120.1C570.534 116.9 567.117 113.3 563.8 109.6C560.484 105.9 557.067 101.8 553.75 97.7C550.434 93.6 547.016 89.2 543.7 85C540.383 80.8 536.966 76.4 533.65 72.3C530.334 68.2 526.917 64.1 523.6 60.4C520.284 56.7 516.867 53.1 513.55 49.9C510.233 46.7 506.816 43.8 503.5 41.2C500.184 38.5 496.767 36.2 493.45 34.1C490.133 32.1 486.716 30.3 483.4 28.7C480.084 27.1 476.667 25.8 473.35 24.6C470.034 23.4 466.617 22.4 463.3 21.5C459.984 20.6 456.566 19.9 453.25 19.2C449.934 18.5 446.516 18 443.2 17.5C439.883 17 436.467 16.6 433.15 16.3C429.833 15.9 426.417 15.6 423.1 15.4C419.963 15.1162 416.735 14.9219 413.588 14.7324L413.05 14.7C409.734 14.5 406.316 14.3 403 14.2C399.684 14.1 396.266 13.9 392.95 13.8C389.633 13.7 386.217 13.6 382.9 13.5C379.583 13.5 376.167 13.4 372.85 13.3C369.534 13.3 366.117 13.2 362.8 13.2C359.484 13.2 356.066 13.1 352.75 13.1C349.434 13.1 346.017 13.1 342.7 13H332.65H322.6H312.55C309.233 13.1 305.816 13.1 302.5 13.1C299.184 13.1 295.767 13.2 292.45 13.2C289.134 13.2 285.716 13.3 282.4 13.3C279.083 13.4 275.667 13.5 272.35 13.5C269.034 13.6 265.617 13.7 262.3 13.8C258.983 13.9 255.566 14.1 252.25 14.2C248.934 14.3 245.517 14.5 242.2 14.7L241.662 14.7324C238.515 14.9219 235.287 15.1162 232.15 15.4C228.833 15.6 225.417 15.9 222.1 16.3C218.784 16.6 215.367 17 212.05 17.5L211.395 17.5986C208.285 18.0665 205.099 18.546 202 19.2C198.684 19.9 195.267 20.6 191.95 21.5C188.634 22.4 185.216 23.4 181.9 24.6C178.583 25.8 175.167 27.1 171.85 28.7C168.534 30.3 165.117 32.1 161.8 34.1C158.483 36.2 155.066 38.5 151.75 41.2C148.434 43.8 145.017 46.7 141.7 49.9C138.384 53.1 134.966 56.7 131.65 60.4C128.333 64.1 124.917 68.2 121.6 72.3C118.284 76.4 114.867 80.8 111.55 85C108.233 89.2 104.816 93.6 101.5 97.7C98.1835 101.8 94.7665 105.9 91.45 109.6C88.1335 113.3 84.7165 116.9 81.4 120.1C78.0835 123.3 74.6665 126.2 71.35 128.8C68.0335 131.5 64.6165 133.8 61.3 135.9C57.9835 137.9 54.5665 139.7 51.25 141.3C47.9335 142.9 44.5165 144.2 41.2 145.4C37.8835 146.6 34.4665 147.6 31.15 148.5C27.8335 149.4 24.4165 150.1 21.1 150.8C18.0012 151.454 14.8148 151.933 11.7045 152.401L11.05 152.5C7.73352 153 4.31653 153.4 1 153.7C-2.31647 154.1 -5.73352 154.4 -9.04999 154.6C-12.1875 154.884 -15.4149 155.078 -18.562 155.268L-19.1 155.3C-22.4165 155.5 -25.8335 155.7 -29.15 155.8C-32.4665 155.9 -35.8835 156.1 -39.2 156.2C-42.5165 156.3 -45.9335 156.4 -49.25 156.5C-52.5665 156.5 -55.9835 156.6 -59.3 156.7C-62.6165 156.7 -66.0335 156.8 -69.35 156.8C-72.6665 156.8 -76.0835 156.9 -79.4 156.9C-82.7165 156.9 -86.1335 156.9 -89.45 157H-99.5H-109.55H-119.6C-122.917 156.9 -126.333 156.9 -129.65 156.9C-132.966 156.9 -136.383 156.8 -139.7 156.8C-143.016 156.8 -146.433 156.7 -149.75 156.7C-153.066 156.6 -156.484 156.5 -159.8 156.5C-163.117 156.4 -166.534 156.3 -169.85 156.2C-173.167 156.1 -176.583 155.9 -179.9 155.8C-183.216 155.7 -186.633 155.5 -189.95 155.3L-190.488 155.268C-193.635 155.078 -196.862 154.884 -200 154.6C-203.316 154.4 -206.734 154.1 -210.05 153.7C-213.367 153.4 -216.784 153 -220.1 152.5L-220.755 152.401C-223.865 151.933 -227.051 151.454 -230.15 150.8L-231.021 150.617C-234.062 149.976 -237.173 149.321 -240.2 148.5C-243.516 147.6 -246.933 146.6 -250.25 145.4C-253.566 144.2 -256.984 142.9 -260.3 141.3C-263.617 139.7 -267.034 137.9 -270.35 135.9C-273.667 133.8 -277.083 131.5 -280.4 128.8C-283.716 126.2 -287.133 123.3 -290.45 120.1C-293.766 116.9 -297.183 113.3 -300.5 109.6C-303.816 105.9 -307.234 101.8 -310.55 97.7C-313.867 93.6 -317.284 89.2 -320.6 85C-323.917 80.8 -327.333 76.4 -330.65 72.3C-333.966 68.2 -337.383 64.1 -340.7 60.4C-344.016 56.7 -347.433 53.1 -350.75 49.9C-354.066 46.7 -357.484 43.8 -360.8 41.2C-364.117 38.5 -367.534 36.2 -370.85 34.1C-374.167 32.1 -377.583 30.3 -380.9 28.7C-384.216 27.1 -387.633 25.8 -390.95 24.6C-394.266 23.4 -397.683 22.4 -401 21.5C-404.027 20.6786 -407.137 20.0238 -410.178 19.3836L-411.05 19.2C-414.149 18.546 -417.335 18.0666 -420.445 17.5986L-421.1 17.5C-424.417 17 -427.833 16.6 -431.15 16.3C-434.467 15.9 -437.884 15.6 -441.2 15.4C-444.338 15.1162 -447.565 14.9219 -450.712 14.7324L-451.25 14.7C-454.567 14.5 -457.984 14.3 -461.3 14.2C-464.616 14.1 -468.033 13.9 -471.35 13.8C-474.667 13.7 -478.083 13.6 -481.4 13.5C-484.717 13.5 -488.134 13.4 -491.45 13.3C-494.766 13.3 -498.183 13.2 -501.5 13.2C-504.817 13.2 -508.234 13.1 -511.55 13.1C-514.866 13.1 -518.283 13.1 -521.6 13H-531.65H-541.7H-551.75C-555.067 13.1 -558.484 13.1 -561.8 13.1C-565.116 13.1 -568.533 13.2 -571.85 13.2C-575.167 13.2 -578.583 13.3 -581.9 13.3C-585.217 13.4 -588.634 13.5 -591.95 13.5C-595.266 13.6 -600.292 13.8 -602 13.8" stroke-width="3" stroke-linecap="round" stroke="#0044FF"/>
<path d="M1468.3 25.3C1466.59 24.7 1461.57 23 1458.25 22C1454.93 21.1 1451.52 20.3 1448.2 19.6C1444.88 18.9 1441.47 18.3 1438.15 17.8C1434.83 17.3 1431.42 16.9 1428.1 16.5C1424.78 16.1 1421.37 15.8 1418.05 15.5C1414.73 15.3 1411.32 15 1408 14.8C1404.68 14.6 1401.27 14.4 1397.95 14.3C1394.73 14.1057 1391.41 14.0058 1388.18 13.9086L1387.9 13.9C1384.58 13.8 1381.17 13.7 1377.85 13.6C1374.53 13.5 1371.12 13.4 1367.8 13.4C1364.48 13.3 1361.07 13.3 1357.75 13.2C1354.43 13.2 1351.02 13.1 1347.7 13.1C1344.38 13.1 1340.97 13.1 1337.65 13H1327.6H1317.55H1307.5C1304.18 13 1300.77 13.1 1297.45 13.1C1294.13 13.1 1290.72 13.1 1287.4 13.2C1284.08 13.2 1280.67 13.3 1277.35 13.3C1274.03 13.4 1270.62 13.4 1267.3 13.5C1263.98 13.6 1260.57 13.7 1257.25 13.8C1253.93 13.9 1250.52 14 1247.2 14.1C1243.88 14.3 1240.47 14.4 1237.15 14.6C1233.83 14.8 1230.42 15 1227.1 15.2C1223.78 15.5 1220.37 15.7 1217.05 16.1C1213.73 16.4 1210.32 16.8 1207 17.2C1203.68 17.7 1200.27 18.2 1196.95 18.8C1193.63 19.4 1190.22 20.1 1186.9 21C1183.58 21.8 1180.17 22.7 1176.85 23.9C1173.53 25 1170.12 26.3 1166.8 27.8C1163.48 29.3 1160.07 31 1156.75 32.9C1153.43 34.9 1150.02 37.1 1146.7 39.6C1143.38 42.1 1139.97 44.9 1136.65 48C1133.33 51.1 1129.92 54.6 1126.6 58.2C1123.28 61.8 1119.87 65.8 1116.55 69.8C1113.23 73.9 1109.82 78.2 1106.5 82.4C1103.18 86.7 1099.77 91.1 1096.45 95.2C1093.13 99.3 1089.72 103.5 1086.4 107.3C1083.08 111.1 1079.67 114.8 1076.35 118.1C1073.03 121.4 1069.62 124.5 1066.3 127.2C1062.98 130 1059.57 132.4 1056.25 134.6C1052.93 136.8 1049.52 138.7 1046.2 140.3C1042.88 142 1039.47 143.4 1036.15 144.7C1032.83 146 1029.42 147 1026.1 148C1022.78 148.9 1019.37 149.7 1016.05 150.4C1012.73 151.1 1009.32 151.7 1006 152.2C1002.68 152.7 999.266 153.1 995.95 153.5C992.888 153.869 989.74 154.153 986.665 154.431L985.9 154.5C982.583 154.7 979.166 155 975.85 155.2C972.533 155.4 969.116 155.6 965.8 155.7C962.578 155.894 959.261 155.994 956.034 156.091L955.75 156.1C952.433 156.2 949.016 156.3 945.7 156.4C942.383 156.5 938.966 156.6 935.65 156.6C932.333 156.7 928.916 156.7 925.6 156.8C922.283 156.8 918.866 156.9 915.55 156.9C912.233 156.9 908.816 156.9 905.5 157H895.45H885.4H875.35C872.033 157 868.616 156.9 865.3 156.9H865.298C861.982 156.9 858.566 156.9 855.25 156.8C851.933 156.8 848.516 156.7 845.2 156.7C841.883 156.6 838.466 156.6 835.15 156.5C831.833 156.4 828.416 156.3 825.1 156.2C821.783 156.1 818.366 156 815.05 155.9C811.733 155.7 808.316 155.6 805 155.4C801.683 155.2 798.266 155 794.95 154.8C791.633 154.5 788.216 154.3 784.9 153.9C781.583 153.6 778.166 153.2 774.85 152.8C771.533 152.3 768.116 151.8 764.8 151.2C761.483 150.6 758.066 149.9 754.75 149C751.433 148.2 748.016 147.3 744.7 146.1C741.383 145 737.966 143.7 734.65 142.2C731.333 140.7 727.916 139 724.6 137.1C721.283 135.1 717.866 132.9 714.55 130.4C711.233 127.9 707.816 125.1 704.5 122C701.183 118.9 697.766 115.4 694.45 111.8C691.133 108.2 687.716 104.2 684.4 100.2C681.083 96.1 677.666 91.8 674.35 87.6C671.033 83.3 667.616 78.9 664.3 74.8C660.983 70.7 657.566 66.5 654.25 62.7C650.933 58.9 647.516 55.2 644.2 51.9C640.883 48.6 637.466 45.5 634.15 42.8C630.833 40 627.416 37.6 624.1 35.4C620.783 33.2 617.366 31.3 614.05 29.7C610.733 28 607.316 26.6 604 25.3C600.683 24 597.266 23 593.95 22C590.633 21.1 587.216 20.3 583.9 19.6C580.583 18.9 577.166 18.3 573.85 17.8C570.856 17.3486 567.78 16.9788 564.771 16.6169L563.8 16.5C560.738 16.1307 557.591 15.8467 554.516 15.5692L553.75 15.5C550.433 15.3 547.016 15 543.7 14.8C540.383 14.6 536.966 14.4 533.65 14.3C530.428 14.1057 527.111 14.0058 523.884 13.9086L523.6 13.9C520.283 13.8 516.866 13.7 513.55 13.6C510.233 13.5 506.816 13.4 503.5 13.4C500.183 13.3 496.766 13.3 493.45 13.2C490.133 13.2 486.716 13.1 483.4 13.1C480.083 13.1 476.666 13.1 473.35 13H463.3H453.25H443.2C439.883 13 436.466 13.1 433.15 13.1C429.833 13.1 426.416 13.1 423.1 13.2C419.783 13.2 416.366 13.3 413.05 13.3C409.733 13.4 406.316 13.4 403 13.5C399.683 13.6 396.266 13.7 392.95 13.8C389.633 13.9 386.216 14 382.9 14.1C379.583 14.3 376.166 14.4 372.85 14.6C369.533 14.8 366.116 15 362.8 15.2C359.483 15.5 356.066 15.7 352.75 16.1C349.433 16.4 346.016 16.8 342.7 17.2C339.383 17.7 335.966 18.2 332.65 18.8C329.333 19.4 325.916 20.1 322.6 21C319.283 21.8 315.866 22.7 312.55 23.9C309.233 25 305.816 26.3 302.5 27.8C299.183 29.3 295.766 31 292.45 32.9C289.133 34.9 285.716 37.1 282.4 39.6C279.083 42.1 275.666 44.9 272.35 48C269.033 51.1 264.008 56.5 262.3 58.2" stroke-width="0.5" stroke-linecap="round" stroke="#0044FF"/>
<path d="M1468.3 125.5C1466.59 126.8 1461.57 131 1458.25 133.3C1454.93 135.5 1451.52 137.5 1448.2 139.3C1444.88 141.1 1441.47 142.6 1438.15 143.9C1434.83 145.3 1431.42 146.4 1428.1 147.4C1424.78 148.4 1421.37 149.2 1418.05 150C1414.73 150.7 1411.32 151.3 1408 151.9C1404.68 152.4 1401.27 152.9 1397.95 153.3C1394.63 153.7 1391.22 154 1387.9 154.3C1384.58 154.6 1381.17 154.8 1377.85 155.1C1374.53 155.3 1371.12 155.5 1367.8 155.6C1364.58 155.794 1361.26 155.894 1358.04 155.991L1357.75 156C1354.43 156.2 1351.02 156.3 1347.7 156.3C1344.38 156.4 1340.97 156.5 1337.65 156.6C1334.33 156.6 1330.92 156.7 1327.6 156.7C1324.28 156.8 1320.87 156.8 1317.55 156.9H1307.5C1304.18 157 1300.77 157 1297.45 157H1287.4H1277.35C1274.03 157 1270.62 157 1267.3 156.9H1267.3C1263.98 156.9 1260.57 156.9 1257.25 156.8C1253.93 156.8 1250.52 156.8 1247.2 156.7C1243.88 156.7 1240.47 156.6 1237.15 156.5C1233.83 156.5 1230.42 156.4 1227.1 156.3C1223.78 156.2 1220.37 156.1 1217.05 156C1213.73 155.8 1210.32 155.7 1207 155.5C1203.68 155.3 1200.27 155.2 1196.95 154.9C1193.63 154.7 1190.22 154.4 1186.9 154.1C1183.58 153.8 1180.17 153.4 1176.85 153C1173.53 152.6 1170.12 152.1 1166.8 151.5C1163.48 150.9 1160.07 150.3 1156.75 149.5C1153.43 148.7 1150.02 147.9 1146.7 146.8C1143.38 145.7 1139.97 144.5 1136.65 143.1C1133.33 141.7 1129.92 140.1 1126.6 138.2C1123.28 136.3 1119.87 134.3 1116.55 131.9C1113.23 129.4 1109.82 126.8 1106.5 123.8C1103.18 120.8 1099.77 117.5 1096.45 114C1093.13 110.4 1089.72 106.6 1086.4 102.6C1083.08 98.6 1079.67 94.3 1076.35 90.1C1073.03 85.9 1069.62 81.5 1066.3 77.3C1062.98 73.1 1059.57 68.9 1056.25 65C1052.93 61.1 1049.52 57.4 1046.2 53.9C1042.88 50.5 1039.47 47.3 1036.15 44.5C1032.83 41.6 1029.42 39 1026.1 36.7C1022.78 34.5 1019.37 32.5 1016.05 30.7C1012.73 28.9 1009.32 27.4 1006 26.1C1002.68 24.7 999.266 23.6 995.95 22.6C992.633 21.6 989.216 20.8 985.9 20C982.583 19.3 979.166 18.7 975.85 18.1C972.533 17.6 969.116 17.1 965.8 16.7C962.738 16.3307 959.59 16.0466 956.515 15.7691L955.75 15.7C952.433 15.4 949.016 15.2 945.7 14.9C942.383 14.7 938.966 14.5 935.65 14.4C932.428 14.2057 929.111 14.1058 925.884 14.0086L925.6 14C922.283 13.8 918.866 13.7 915.55 13.7C912.233 13.6 908.816 13.5 905.5 13.4C902.183 13.4 898.766 13.3 895.45 13.3C892.133 13.2 888.716 13.2 885.4 13.1H875.35C872.033 13 868.616 13 865.3 13H855.25H845.2C841.883 13 838.466 13 835.15 13.1C831.833 13.1 828.416 13.1 825.1 13.2C821.783 13.2 818.366 13.2 815.05 13.3C811.733 13.3 808.316 13.4 805 13.5C801.683 13.5 798.266 13.6 794.95 13.7C791.633 13.8 788.216 13.9 784.9 14C781.583 14.2 778.166 14.3 774.85 14.5C771.533 14.7 768.116 14.8 764.8 15.1C761.483 15.3 758.066 15.6 754.75 15.9C751.433 16.2 748.016 16.6 744.7 17C741.383 17.4 737.966 17.9 734.65 18.5L733.884 18.6383C730.809 19.1933 727.662 19.7614 724.6 20.5L723.907 20.6668C720.809 21.4126 717.636 22.1764 714.55 23.2C711.233 24.3 707.816 25.5 704.5 26.9C701.183 28.3 697.766 29.9 694.45 31.8C691.133 33.7 687.716 35.7 684.4 38.1C681.083 40.6 677.666 43.2 674.35 46.2C671.033 49.2 667.616 52.5 664.3 56C660.983 59.6 657.566 63.4 654.25 67.4C650.933 71.4 647.516 75.7 644.2 79.9C640.883 84.1 637.466 88.5 634.15 92.7C630.833 96.9 627.416 101.1 624.1 105C620.783 108.9 617.366 112.6 614.05 116.1C610.733 119.5 607.316 122.7 604 125.5C600.683 128.4 597.266 131 593.95 133.3C590.633 135.5 587.216 137.5 583.9 139.3C580.583 141.1 577.166 142.6 573.85 143.9C570.533 145.3 567.116 146.4 563.8 147.4C560.483 148.4 557.066 149.2 553.75 150C550.433 150.7 547.016 151.3 543.7 151.9C540.383 152.4 536.966 152.9 533.65 153.3C530.588 153.669 527.44 153.953 524.365 154.231L523.6 154.3C520.283 154.6 516.866 154.8 513.55 155.1C510.233 155.3 506.816 155.5 503.5 155.6C500.278 155.794 496.962 155.894 493.736 155.991L493.45 156C490.133 156.2 486.716 156.3 483.4 156.3C480.083 156.4 476.666 156.5 473.35 156.6C470.033 156.6 466.616 156.7 463.3 156.7C459.983 156.8 456.566 156.8 453.25 156.9H443.2C439.883 157 436.466 157 433.15 157H423.1H413.05C409.733 157 406.316 157 403 156.9H402.998C399.682 156.9 396.266 156.9 392.95 156.8C389.633 156.8 386.216 156.8 382.9 156.7C379.583 156.7 376.166 156.6 372.85 156.5C369.533 156.5 366.116 156.4 362.8 156.3C359.483 156.2 356.066 156.1 352.75 156C349.433 155.8 346.016 155.7 342.7 155.5C339.383 155.3 335.966 155.2 332.65 154.9C329.333 154.7 325.916 154.4 322.6 154.1C319.283 153.8 315.866 153.4 312.55 153C309.233 152.6 305.816 152.1 302.5 151.5L301.733 151.362C298.658 150.807 295.511 150.238 292.45 149.5L291.757 149.333C288.659 148.587 285.486 147.824 282.4 146.8C279.083 145.7 275.666 144.5 272.35 143.1C269.033 141.7 264.008 139 262.3 138.2" stroke-width="1.5" stroke-linecap="round" stroke="#0044FF"/>
<path d="M1468.3 79.9C1466.59 77.8 1461.57 71.4 1458.25 67.4C1454.93 63.4 1451.52 59.6 1448.2 56C1444.88 52.5 1441.47 49.2 1438.15 46.2C1434.83 43.2 1431.42 40.6 1428.1 38.1C1424.78 35.7 1421.37 33.7 1418.05 31.8C1414.73 29.9 1411.32 28.3 1408 26.9C1404.68 25.5 1401.27 24.3 1397.95 23.2C1394.63 22.1 1391.22 21.3 1387.9 20.5C1384.58 19.7 1381.17 19.1 1377.85 18.5C1374.53 17.9 1371.12 17.4 1367.8 17C1364.48 16.6 1361.07 16.2 1357.75 15.9C1354.43 15.6 1351.02 15.3 1347.7 15.1C1344.38 14.8 1340.97 14.7 1337.65 14.5C1334.33 14.3 1330.92 14.2 1327.6 14C1324.28 13.9 1320.87 13.8 1317.55 13.7C1314.23 13.6 1310.82 13.5 1307.5 13.5C1304.18 13.4 1300.77 13.3 1297.45 13.3C1294.13 13.2 1290.72 13.2 1287.4 13.2C1284.08 13.1 1280.67 13.1 1277.35 13.1C1274.03 13 1270.62 13 1267.3 13H1257.25H1247.2C1243.88 13 1240.47 13 1237.15 13.1H1227.1C1223.78 13.2 1220.37 13.2 1217.05 13.3C1213.73 13.3 1210.32 13.4 1207 13.4C1203.68 13.5 1200.27 13.6 1196.95 13.7C1193.63 13.7 1190.22 13.8 1186.9 14L1186.62 14.0086C1183.39 14.1058 1180.07 14.2057 1176.85 14.4C1173.53 14.5 1170.12 14.7 1166.8 14.9C1163.48 15.2 1160.07 15.4 1156.75 15.7L1155.98 15.7691C1152.91 16.0467 1149.76 16.3307 1146.7 16.7C1143.38 17.1 1139.97 17.6 1136.65 18.1C1133.33 18.7 1129.92 19.3 1126.6 20C1123.28 20.8 1119.87 21.6 1116.55 22.6C1113.23 23.6 1109.82 24.7 1106.5 26.1C1103.18 27.4 1099.77 28.9 1096.45 30.7C1093.13 32.5 1089.72 34.5 1086.4 36.7C1083.08 39 1079.67 41.6 1076.35 44.5C1073.03 47.3 1069.62 50.5 1066.3 53.9C1062.98 57.4 1059.57 61.1 1056.25 65C1052.93 68.9 1049.52 73.1 1046.2 77.3C1042.88 81.5 1039.47 85.9 1036.15 90.1C1032.83 94.3 1029.42 98.6 1026.1 102.6C1022.78 106.6 1019.37 110.4 1016.05 114C1012.73 117.5 1009.32 120.8 1006 123.8C1002.68 126.8 999.266 129.4 995.95 131.9C992.633 134.3 989.216 136.3 985.9 138.2C982.583 140.1 979.166 141.7 975.85 143.1C972.533 144.5 969.116 145.7 965.8 146.8C962.483 147.9 959.066 148.7 955.75 149.5C952.433 150.3 949.016 150.9 945.7 151.5C942.383 152.1 938.966 152.6 935.65 153C932.333 153.4 928.916 153.8 925.6 154.1C922.283 154.4 918.866 154.7 915.55 154.9C912.233 155.2 908.816 155.3 905.5 155.5C902.183 155.7 898.766 155.8 895.45 156C892.133 156.1 888.716 156.2 885.4 156.3C882.083 156.4 878.666 156.5 875.35 156.5C872.033 156.6 868.616 156.7 865.3 156.7C861.983 156.8 858.566 156.8 855.25 156.8C851.934 156.9 848.517 156.9 845.201 156.9H845.2C841.883 157 838.466 157 835.15 157H825.1H815.05C811.733 157 808.316 157 805 156.9H794.95C791.633 156.8 788.216 156.8 784.9 156.7C781.583 156.7 778.166 156.6 774.85 156.6C771.533 156.5 768.116 156.4 764.8 156.3C761.483 156.3 758.066 156.2 754.75 156L754.464 155.991C751.237 155.894 747.921 155.794 744.7 155.6C741.383 155.5 737.966 155.3 734.65 155.1C731.333 154.8 727.916 154.6 724.6 154.3L723.834 154.231C720.759 153.953 717.612 153.669 714.55 153.3C711.233 152.9 707.816 152.4 704.5 151.9C701.183 151.3 697.766 150.7 694.45 150C691.133 149.2 687.716 148.4 684.4 147.4C681.083 146.4 677.666 145.3 674.35 143.9C671.033 142.6 667.616 141.1 664.3 139.3C660.983 137.5 657.566 135.5 654.25 133.3C650.933 131 647.516 128.4 644.2 125.5C640.883 122.7 637.466 119.5 634.15 116.1C630.833 112.6 627.416 108.9 624.1 105C620.783 101.1 617.366 96.9 614.05 92.7C610.733 88.5 607.316 84.1 604 79.9C600.683 75.7 597.266 71.4 593.95 67.4C590.633 63.4 587.216 59.6 583.9 56C580.583 52.5 577.166 49.2 573.85 46.2C570.533 43.2 567.116 40.6 563.8 38.1C560.483 35.7 557.066 33.7 553.75 31.8C550.433 29.9 547.016 28.3 543.7 26.9C540.383 25.5 536.966 24.3 533.65 23.2C530.564 22.1764 527.39 21.4125 524.292 20.6667L523.6 20.5C520.538 19.7614 517.39 19.1933 514.315 18.6382L513.55 18.5C510.233 17.9 506.816 17.4 503.5 17C500.183 16.6 496.766 16.2 493.45 15.9C490.133 15.6 486.716 15.3 483.4 15.1C480.083 14.8 476.666 14.7 473.35 14.5C470.033 14.3 466.616 14.2 463.3 14C459.983 13.9 456.566 13.8 453.25 13.7C449.933 13.6 446.516 13.5 443.2 13.5C439.883 13.4 436.466 13.3 433.15 13.3C429.833 13.2 426.416 13.2 423.1 13.2C419.783 13.1 416.366 13.1 413.05 13.1C409.733 13 406.316 13 403 13H392.95H382.9C379.583 13 376.166 13 372.85 13.1H362.8C359.483 13.2 356.066 13.2 352.75 13.3C349.433 13.3 346.016 13.4 342.7 13.4C339.383 13.5 335.966 13.6 332.65 13.7C329.333 13.7 325.916 13.8 322.6 14L322.316 14.0086C319.088 14.1058 315.772 14.2057 312.55 14.4C309.233 14.5 305.816 14.7 302.5 14.9C299.183 15.2 295.766 15.4 292.45 15.7L291.685 15.7691C288.609 16.0466 285.462 16.3307 282.4 16.7C279.083 17.1 275.666 17.6 272.35 18.1C269.033 18.7 264.008 19.7 262.3 20" stroke-width="2" stroke-linecap="round" stroke="#0044FF"/>
<path d="M1468.3 51.9C1466.59 53.7 1461.57 58.9 1458.25 62.7C1454.93 66.5 1451.52 70.7 1448.2 74.8C1444.88 78.9 1441.47 83.3 1438.15 87.6C1434.83 91.8 1431.42 96.1 1428.1 100.2C1424.78 104.2 1421.37 108.2 1418.05 111.8C1414.73 115.4 1411.32 118.9 1408 122C1404.68 125.1 1401.27 127.9 1397.95 130.4C1394.63 132.9 1391.22 135.1 1387.9 137.1C1384.58 139 1381.17 140.7 1377.85 142.2C1374.53 143.7 1371.12 145 1367.8 146.1C1364.48 147.3 1361.07 148.2 1357.75 149C1354.43 149.9 1351.02 150.6 1347.7 151.2C1344.38 151.8 1340.97 152.3 1337.65 152.8C1334.33 153.2 1330.92 153.6 1327.6 153.9C1324.28 154.3 1320.87 154.5 1317.55 154.8C1314.23 155 1310.82 155.2 1307.5 155.4C1304.18 155.6 1300.77 155.7 1297.45 155.9C1294.13 156 1290.72 156.1 1287.4 156.2C1284.08 156.3 1280.67 156.4 1277.35 156.5C1274.03 156.6 1270.62 156.6 1267.3 156.7C1263.98 156.7 1260.57 156.8 1257.25 156.8C1253.93 156.9 1250.52 156.9 1247.2 156.9H1247.2C1243.88 156.9 1240.47 157 1237.15 157H1227.1H1217.05H1207C1203.68 156.9 1200.27 156.9 1196.95 156.9C1193.63 156.9 1190.22 156.8 1186.9 156.8C1183.58 156.7 1180.17 156.7 1176.85 156.6C1173.53 156.6 1170.12 156.5 1166.8 156.4C1163.48 156.3 1160.07 156.2 1156.75 156.1L1156.47 156.091C1153.24 155.994 1149.92 155.894 1146.7 155.7C1143.38 155.6 1139.97 155.4 1136.65 155.2C1133.33 155 1129.92 154.7 1126.6 154.5L1125.83 154.431C1122.76 154.153 1119.61 153.869 1116.55 153.5C1113.23 153.1 1109.82 152.7 1106.5 152.2C1103.18 151.7 1099.77 151.1 1096.45 150.4C1093.13 149.7 1089.72 148.9 1086.4 148C1083.08 147 1079.67 146 1076.35 144.7C1073.03 143.4 1069.62 142 1066.3 140.3C1062.98 138.7 1059.57 136.8 1056.25 134.6C1052.93 132.4 1049.52 130 1046.2 127.2C1042.88 124.5 1039.47 121.4 1036.15 118.1C1032.83 114.8 1029.42 111.1 1026.1 107.3C1022.78 103.5 1019.37 99.3 1016.05 95.2C1012.73 91.1 1009.32 86.7 1006 82.4C1002.68 78.2 999.266 73.9 995.95 69.8C992.633 65.8 989.216 61.8 985.9 58.2C982.583 54.6 979.166 51.1 975.85 48C972.533 44.9 969.116 42.1 965.8 39.6C962.483 37.1 959.066 34.9 955.75 32.9C952.433 31 949.016 29.3 945.7 27.8C942.383 26.3 938.966 25 935.65 23.9C932.333 22.7 928.916 21.8 925.6 21C922.283 20.1 918.866 19.4 915.55 18.8C912.233 18.2 908.816 17.7 905.5 17.2C902.183 16.8 898.766 16.4 895.45 16.1C892.133 15.7 888.716 15.5 885.4 15.2C882.083 15 878.666 14.8 875.35 14.6C872.033 14.4 868.616 14.3 865.3 14.1C861.983 14 858.566 13.9 855.25 13.8C851.933 13.7 848.516 13.6 845.2 13.5C841.883 13.4 838.466 13.4 835.15 13.3C831.833 13.3 828.416 13.2 825.1 13.2C821.783 13.1 818.366 13.1 815.05 13.1C811.733 13.1 808.316 13 805 13H794.95H784.9H774.85C771.533 13.1 768.116 13.1 764.8 13.1C761.483 13.1 758.066 13.2 754.75 13.2C751.433 13.3 748.016 13.3 744.7 13.4C741.383 13.4 737.966 13.5 734.65 13.6C731.333 13.7 727.916 13.8 724.6 13.9L724.315 13.9086C721.088 14.0058 717.772 14.1057 714.55 14.3C711.233 14.4 707.816 14.6 704.5 14.8C701.183 15 697.766 15.3 694.45 15.5L693.685 15.5691C690.609 15.8466 687.462 16.1307 684.4 16.5L683.428 16.6169C680.419 16.9788 677.343 17.3487 674.35 17.8C671.033 18.3 667.616 18.9 664.3 19.6C660.983 20.3 657.566 21.1 654.25 22C650.933 23 647.516 24 644.2 25.3C640.883 26.6 637.466 28 634.15 29.7C630.833 31.3 627.416 33.2 624.1 35.4C620.783 37.6 617.366 40 614.05 42.8C610.733 45.5 607.316 48.6 604 51.9C600.683 55.2 597.266 58.9 593.95 62.7C590.633 66.5 587.216 70.7 583.9 74.8C580.583 78.9 577.166 83.3 573.85 87.6C570.533 91.8 567.116 96.1 563.8 100.2C560.483 104.2 557.066 108.2 553.75 111.8C550.433 115.4 547.016 118.9 543.7 122C540.383 125.1 536.966 127.9 533.65 130.4C530.333 132.9 526.916 135.1 523.6 137.1C520.283 139 516.866 140.7 513.55 142.2C510.233 143.7 506.816 145 503.5 146.1C500.183 147.3 496.766 148.2 493.45 149C490.133 149.9 486.716 150.6 483.4 151.2C480.083 151.8 476.666 152.3 473.35 152.8C470.033 153.2 466.616 153.6 463.3 153.9C459.983 154.3 456.566 154.5 453.25 154.8C449.933 155 446.516 155.2 443.2 155.4C439.883 155.6 436.466 155.7 433.15 155.9C429.833 156 426.416 156.1 423.1 156.2C419.783 156.3 416.366 156.4 413.05 156.5C409.733 156.6 406.316 156.6 403 156.7C399.683 156.7 396.266 156.8 392.95 156.8C389.634 156.9 386.217 156.9 382.901 156.9H382.9C379.583 156.9 376.166 157 372.85 157H362.8H352.75H342.7C339.383 156.9 335.966 156.9 332.65 156.9C329.333 156.9 325.916 156.8 322.6 156.8C319.283 156.7 315.866 156.7 312.55 156.6C309.233 156.6 305.816 156.5 302.5 156.4C299.183 156.3 295.766 156.2 292.45 156.1L292.166 156.091C288.938 155.994 285.622 155.894 282.4 155.7C279.083 155.6 275.666 155.4 272.35 155.2C269.033 155 264.008 154.6 262.3 154.5" stroke-width="1.5" stroke-linecap="round" stroke="#0044FF"/>
<path d="M1468.3 141.3C1466.59 140.4 1461.57 137.9 1458.25 135.9C1454.93 133.8 1451.52 131.5 1448.2 128.8C1444.88 126.2 1441.47 123.3 1438.15 120.1C1434.83 116.9 1431.42 113.3 1428.1 109.6C1424.78 105.9 1421.37 101.8 1418.05 97.7C1414.73 93.6 1411.32 89.2 1408 85C1404.68 80.8 1401.27 76.4 1397.95 72.3C1394.63 68.2 1391.22 64.1 1387.9 60.4C1384.58 56.7 1381.17 53.1 1377.85 49.9C1374.53 46.7 1371.12 43.8 1367.8 41.2C1364.48 38.5 1361.07 36.2 1357.75 34.1C1354.43 32.1 1351.02 30.3 1347.7 28.7C1344.38 27.1 1340.97 25.8 1337.65 24.6C1334.33 23.4 1330.92 22.4 1327.6 21.5C1324.28 20.6 1320.87 19.9 1317.55 19.2C1314.23 18.5 1310.82 18 1307.5 17.5C1304.18 17 1300.77 16.6 1297.45 16.3C1294.13 15.9 1290.72 15.6 1287.4 15.4C1284.26 15.1162 1281.03 14.9219 1277.89 14.7324L1277.35 14.7C1274.03 14.5 1270.62 14.3 1267.3 14.2C1263.98 14.1 1260.57 13.9 1257.25 13.8C1253.93 13.7 1250.52 13.6 1247.2 13.5C1243.88 13.5 1240.47 13.4 1237.15 13.3C1233.83 13.3 1230.42 13.2 1227.1 13.2C1223.78 13.2 1220.37 13.1 1217.05 13.1C1213.73 13.1 1210.32 13.1 1207 13H1196.95H1186.9H1176.85C1173.53 13.1 1170.12 13.1 1166.8 13.1C1163.48 13.1 1160.07 13.2 1156.75 13.2C1153.43 13.2 1150.02 13.3 1146.7 13.3C1143.38 13.4 1139.97 13.5 1136.65 13.5C1133.33 13.6 1129.92 13.7 1126.6 13.8C1123.28 13.9 1119.87 14.1 1116.55 14.2C1113.23 14.3 1109.82 14.5 1106.5 14.7L1105.96 14.7324C1102.81 14.9219 1099.59 15.1162 1096.45 15.4C1093.13 15.6 1089.72 15.9 1086.4 16.3C1083.08 16.6 1079.67 17 1076.35 17.5L1075.7 17.5986C1072.58 18.0665 1069.4 18.546 1066.3 19.2C1062.98 19.9 1059.57 20.6 1056.25 21.5C1052.93 22.4 1049.52 23.4 1046.2 24.6C1042.88 25.8 1039.47 27.1 1036.15 28.7C1032.83 30.3 1029.42 32.1 1026.1 34.1C1022.78 36.2 1019.37 38.5 1016.05 41.2C1012.73 43.8 1009.32 46.7 1006 49.9C1002.68 53.1 999.266 56.7 995.95 60.4C992.633 64.1 989.216 68.2 985.9 72.3C982.583 76.4 979.166 80.8 975.85 85C972.533 89.2 969.116 93.6 965.8 97.7C962.483 101.8 959.066 105.9 955.75 109.6C952.433 113.3 949.016 116.9 945.7 120.1C942.383 123.3 938.966 126.2 935.65 128.8C932.333 131.5 928.916 133.8 925.6 135.9C922.283 137.9 918.866 139.7 915.55 141.3C912.233 142.9 908.816 144.2 905.5 145.4C902.183 146.6 898.766 147.6 895.45 148.5C892.133 149.4 888.716 150.1 885.4 150.8C882.301 151.454 879.115 151.933 876.004 152.401L875.35 152.5C872.033 153 868.616 153.4 865.3 153.7C861.983 154.1 858.566 154.4 855.25 154.6C852.112 154.884 848.885 155.078 845.738 155.268L845.2 155.3C841.883 155.5 838.466 155.7 835.15 155.8C831.833 155.9 828.416 156.1 825.1 156.2C821.783 156.3 818.366 156.4 815.05 156.5C811.733 156.5 808.316 156.6 805 156.7C801.683 156.7 798.266 156.8 794.95 156.8C791.633 156.8 788.216 156.9 784.9 156.9C781.583 156.9 778.166 156.9 774.85 157H764.8H754.75H744.7C741.383 156.9 737.966 156.9 734.65 156.9C731.333 156.9 727.916 156.8 724.6 156.8C721.283 156.8 717.866 156.7 714.55 156.7C711.233 156.6 707.816 156.5 704.5 156.5C701.183 156.4 697.766 156.3 694.45 156.2C691.133 156.1 687.716 155.9 684.4 155.8C681.083 155.7 677.666 155.5 674.35 155.3L673.812 155.268C670.665 155.078 667.437 154.884 664.3 154.6C660.983 154.4 657.566 154.1 654.25 153.7C650.933 153.4 647.516 153 644.2 152.5L643.545 152.401C640.435 151.933 637.249 151.454 634.15 150.8L633.279 150.617C630.238 149.976 627.127 149.321 624.1 148.5C620.783 147.6 617.366 146.6 614.05 145.4C610.733 144.2 607.316 142.9 604 141.3C600.683 139.7 597.266 137.9 593.95 135.9C590.633 133.8 587.216 131.5 583.9 128.8C580.583 126.2 577.166 123.3 573.85 120.1C570.533 116.9 567.116 113.3 563.8 109.6C560.483 105.9 557.066 101.8 553.75 97.7C550.433 93.6 547.016 89.2 543.7 85C540.383 80.8 536.966 76.4 533.65 72.3C530.333 68.2 526.916 64.1 523.6 60.4C520.283 56.7 516.866 53.1 513.55 49.9C510.233 46.7 506.816 43.8 503.5 41.2C500.183 38.5 496.766 36.2 493.45 34.1C490.133 32.1 486.716 30.3 483.4 28.7C480.083 27.1 476.666 25.8 473.35 24.6C470.033 23.4 466.616 22.4 463.3 21.5C460.273 20.6786 457.163 20.0238 454.121 19.3836L453.25 19.2C450.151 18.546 446.965 18.0666 443.855 17.5986L443.2 17.5C439.883 17 436.466 16.6 433.15 16.3C429.833 15.9 426.416 15.6 423.1 15.4C419.962 15.1162 416.735 14.9219 413.588 14.7324L413.05 14.7C409.733 14.5 406.316 14.3 403 14.2C399.683 14.1 396.266 13.9 392.95 13.8C389.633 13.7 386.216 13.6 382.9 13.5C379.583 13.5 376.166 13.4 372.85 13.3C369.533 13.3 366.116 13.2 362.8 13.2C359.483 13.2 356.066 13.1 352.75 13.1C349.433 13.1 346.016 13.1 342.7 13H332.65H322.6H312.55C309.233 13.1 305.816 13.1 302.5 13.1C299.183 13.1 295.766 13.2 292.45 13.2C289.133 13.2 285.716 13.3 282.4 13.3C279.083 13.4 275.666 13.5 272.35 13.5C269.033 13.6 264.008 13.8 262.3 13.8" stroke-width="3" stroke-linecap="round" stroke="#0044FF"/>
</g>
</g>
<defs>
<clipPath id="clip0_23_308">
<rect width="1360" height="170" fill="white" transform="matrix(-1 0 0 1 1360 0)"/>
</clipPath>
<clipPath id="clip1_23_308">
<rect width="1408" height="170" fill="white" transform="matrix(-1 0 0 1 1360 0)"/>
</clipPath>
</defs>
</svg>
