<svg xmlns="http://www.w3.org/2000/svg" viewBox="0 0 1600 1200" width="1600" height="1200"><style>path{fill:none;stroke:#0044ff;stroke-width:1;vector-effect:non-scaling-stroke;stroke-dasharray:1;stroke-dashoffset:1;animation:draw 1.6s cubic-bezier(.45,.05,.25,1) forwards}@keyframes draw{to{stroke-dashoffset:0}}@media(prefers-reduced-motion:reduce){path{animation:none;stroke-dashoffset:0}}</style><path pathLength="1" d="M627.2 600.0A172.8 467.2 0 1 0 972.8 600.0A172.8 467.2 0 1 0 627.2 600.0" style="animation-delay:0.61s"/><path pathLength="1" d="M606.2 600.0A193.8 446.2 0 1 0 993.8 600.0A193.8 446.2 0 1 0 606.2 600.0" style="animation-delay:0.53s"/><path pathLength="1" d="M585.1 600.0A214.9 425.1 0 1 0 1014.9 600.0A214.9 425.1 0 1 0 585.1 600.0" style="animation-delay:0.45s"/><path pathLength="1" d="M564.1 600.0A235.9 404.1 0 1 0 1035.9 600.0A235.9 404.1 0 1 0 564.1 600.0" style="animation-delay:0.37s"/><path pathLength="1" d="M543.1 600.0A256.9 383.1 0 1 0 1056.9 600.0A256.9 383.1 0 1 0 543.1 600.0" style="animation-delay:0.29s"/><path pathLength="1" d="M522.1 600.0A277.9 362.1 0 1 0 1077.9 600.0A277.9 362.1 0 1 0 522.1 600.0" style="animation-delay:0.21s"/><path pathLength="1" d="M501.0 600.0A299.0 341.0 0 1 0 1099.0 600.0A299.0 341.0 0 1 0 501.0 600.0" style="animation-delay:0.13s"/><path pathLength="1" d="M480.0 600.0A320.0 320.0 0 1 0 1120.0 600.0A320.0 320.0 0 1 0 480.0 600.0" style="animation-delay:0.05s"/><path pathLength="1" d="M459.0 600.0A341.0 299.0 0 1 0 1141.0 600.0A341.0 299.0 0 1 0 459.0 600.0" style="animation-delay:0.13s"/><path pathLength="1" d="M437.9 600.0A362.1 277.9 0 1 0 1162.1 600.0A362.1 277.9 0 1 0 437.9 600.0" style="animation-delay:0.21s"/><path pathLength="1" d="M416.9 600.0A383.1 256.9 0 1 0 1183.1 600.0A383.1 256.9 0 1 0 416.9 600.0" style="animation-delay:0.29s"/><path pathLength="1" d="M395.9 600.0A404.1 235.9 0 1 0 1204.1 600.0A404.1 235.9 0 1 0 395.9 600.0" style="animation-delay:0.37s"/><path pathLength="1" d="M374.9 600.0A425.1 214.9 0 1 0 1225.1 600.0A425.1 214.9 0 1 0 374.9 600.0" style="animation-delay:0.45s"/><path pathLength="1" d="M353.8 600.0A446.2 193.8 0 1 0 1246.2 600.0A446.2 193.8 0 1 0 353.8 600.0" style="animation-delay:0.53s"/><path pathLength="1" d="M332.8 600.0A467.2 172.8 0 1 0 1267.2 600.0A467.2 172.8 0 1 0 332.8 600.0" style="animation-delay:0.61s"/></svg>
